<svg width="1441" height="309" viewBox="0 0 1441 309" fill="none" xmlns="http://www.w3.org/2000/svg">
<path d="M1 149.4L49 140.506C97 131.944 193 113.656 289 136.1C385 158.544 481 220.056 577 238.094C673 255.8 769 229.2 865 211.494C961 193.456 1057 185.144 1153 184.894C1249 185.144 1345 193.456 1393 198.194L1441 202.6V309H1393C1345 309 1249 309 1153 309C1057 309 961 309 865 309C769 309 673 309 577 309C481 309 385 309 289 309C193 309 97 309 49 309H1V149.4Z" fill="#0099FF"/>
<g clip-path="url(#clip0)">
<path d="M0 247.2H48C96 247.2 192 247.2 288 221.418C384 196.022 480 143.878 576 139.05C672 134.222 768 174.778 864 190.518C960 205.678 1056 196.022 1152 195.732C1248 196.022 1344 205.678 1392 211.182L1440 216.3V309H1392C1344 309 1248 309 1152 309C1056 309 960 309 864 309C768 309 672 309 576 309C480 309 384 309 288 309C192 309 96 309 48 309H0V247.2Z" fill="#0099FF" fill-opacity="0.51"/>
<g clip-path="url(#clip1)">
<path d="M205 185.308L253 180.923C301 176.208 397 167.935 493 172.072C589 176.208 685 194.408 781 189.692C877 185.308 973 158.835 1069 163.22C1165 167.935 1261 202.68 1357 220.632C1453 238.253 1549 238.253 1597 238.253H1645V264.725H1597C1549 264.725 1453 264.725 1357 264.725C1261 264.725 1165 264.725 1069 264.725C973 264.725 877 264.725 781 264.725C685 264.725 589 264.725 493 264.725C397 264.725 301 264.725 253 264.725H205V185.308Z" fill="#0099FF" fill-opacity="0.45"/>
</g>
</g>
<defs>
<clipPath id="clip0">
<rect width="1440" height="309" fill="white"/>
</clipPath>
<clipPath id="clip1">
<rect width="1440" height="264.725" fill="white" transform="translate(205)"/>
</clipPath>
</defs>
</svg>
